<?xml version="1.0" encoding="utf-8"?>
<!-- Generator: Adobe Illustrator 25.4.1, SVG Export Plug-In . SVG Version: 6.00 Build 0)  -->
<svg version="1.1" id="Layer_1" xmlns="http://www.w3.org/2000/svg" xmlns:xlink="http://www.w3.org/1999/xlink" x="0px" y="0px"
	 viewBox="0 0 256 256" style="enable-background:new 0 0 256 256;" xml:space="preserve">
<style type="text/css">
	.st0{fill:#0f303f;}
	.st0:hover{fill:#E64926;}
	.st0:focus{fill:#E64926;}
</style>
<g transform="translate(1.4065934065934016 1.4065934065934016) scale(2.81 2.81)">
	<path class="st0" d="M89.2,26.6c-0.8-1.1-2.1-1.7-3.5-1.7H17.2l-0.9-3.3c-0.7-2.6-3.2-4.4-6-4.4H1.1c-0.6,0-1,0.4-1,1
		c0,0.5,0.4,1,1,1h9.3c1.9,0,3.5,1.2,4,3l11.2,41c0.1,0.4,0.5,0.7,1,0.7h52.2c0.6,0,1-0.4,1-1c0-0.5-0.4-1-1-1H27.3l-2.4-8.8h53.3
		c2.7,0,5.1-1.7,5.9-4.2l5.8-18.7C90.3,29,90,27.6,89.2,26.6z M88,29.7l-5.8,18.7c-0.5,1.7-2.2,2.8-4,2.8H24.3l-6.6-24.4h68
		c0.7,0,1.4,0.3,1.9,0.9C88,28.3,88.2,29,88,29.7z"/>
	<path class="st0" d="M35.5,80.8c-3.8,0-6.8-2.9-6.8-6.5s3.1-6.5,6.8-6.5c3.8,0,6.8,2.9,6.8,6.5S39.3,80.8,35.5,80.8z M35.5,69.7
		c-2.7,0-4.8,2.1-4.8,4.6s2.2,4.6,4.8,4.6s4.8-2.1,4.8-4.6S38.2,69.7,35.5,69.7z"/>
	<path class="st0" d="M68.3,80.8c-3.8,0-6.8-2.9-6.8-6.5s3.1-6.5,6.8-6.5c3.8,0,6.8,2.9,6.8,6.5S72.1,80.8,68.3,80.8z M68.3,69.7
		c-2.7,0-4.8,2.1-4.8,4.6s2.2,4.6,4.8,4.6s4.8-2.1,4.8-4.6C73.1,71.8,71,69.7,68.3,69.7z"/>
</g>
</svg>
