<svg aria-hidden="true" style="position: absolute; width: 0; height: 0; overflow: hidden;" version="1.1" xmlns="http://www.w3.org/2000/svg" xmlns:xlink="http://www.w3.org/1999/xlink">
<defs>
<symbol id="account" viewBox="0 0 28 32">
<path  d="M26.539 30.222h-24.634c0.148-1.023 0.422-2.025 0.82-2.985 0.625-1.51 1.542-2.882 2.698-4.037s2.527-2.072 4.037-2.698c1.51-0.625 3.128-0.947 4.762-0.947s3.252 0.322 4.762 0.947c1.51 0.625 2.882 1.542 4.037 2.698s2.072 2.527 2.698 4.037c0.397 0.959 0.672 1.962 0.82 2.985zM28.333 30.222c-0.158-1.257-0.484-2.49-0.971-3.665-0.715-1.726-1.762-3.293-3.083-4.614s-2.889-2.368-4.614-3.083c-1.726-0.715-3.575-1.083-5.443-1.083s-3.717 0.368-5.443 1.083c-1.726 0.715-3.293 1.762-4.614 3.083s-2.368 2.889-3.083 4.614c-0.487 1.175-0.813 2.408-0.971 3.665-0.074 0.588-0.112 1.182-0.112 1.778h28.444c0-0.596-0.037-1.189-0.111-1.778z"></path>
<path  d="M14.222 12.444c-2.945 0-5.333-2.388-5.333-5.333s2.388-5.333 5.333-5.333c2.945 0 5.333 2.388 5.333 5.333s-2.388 5.333-5.333 5.333zM14.222 14.222c3.927 0 7.111-3.184 7.111-7.111s-3.184-7.111-7.111-7.111c-3.927 0-7.111 3.184-7.111 7.111s3.184 7.111 7.111 7.111z"></path>
</symbol>
<symbol id="busket" viewBox="0 0 27 32">
<path fill="none" stroke-linejoin="miter" stroke-linecap="butt" stroke-miterlimit="4" stroke-width="1.6842" d="M0.842 10.947h25.263v20.211h-25.263v-20.211z"></path>
<path fill="none" stroke-linejoin="miter" stroke-linecap="butt" stroke-miterlimit="4" stroke-width="1.6842" d="M21.895 10.105c0-2.233-0.887-4.375-2.467-5.955s-3.721-2.466-5.955-2.466-4.375 0.887-5.955 2.466c-1.579 1.579-2.466 3.721-2.466 5.955"></path>
</symbol>
</defs>
</svg>
